:SAMPLES-PER-SECOND 30
:FULLY-SPECIFIED
:DEGREES
157
root  24.1 39.589 1.26127 -176.17 -34.8765 176.51
RightUpLeg  13.2858 -12.4875 -13.6396
RightLeg  12.5726 -24.6929 -4.50765
RightFoot  9.39686 -6.4495 34.6154
RightToes  -5.8209e-011 0 -3.6325e-017
Spine  2.2445 4.08981 1.15904
Spine1  -13.8451 4.51175 -2.23765
HEad  1.583 -0.497101 -3.47327
LeftShoulder1  0.797983 7.68559 31.1762
LeftArm  -57.5595 -39.0695 -6.34872
LeftForeArm  -5.72276 -31.7859 -7.29875
LeftHand  -1.7759 -4.73449 20.4702
RightShoulder  0.724697 -6.49459 -36.3743
RightArm  -71.6942 29.7284 12.5546
RightForeArm  -6.19227 57.5595 18.5542
RightHand  -4.35032 8.84237 -34.7314
LeftUpLeg  -4.90225 -3.84696 2.88422
LeftLeg  26.986 11.5119 6.70039
LeftFoot  -5.63641 0.457613 -8.55292
LeftToes  6.82088e-011 -2.45093e-011 5.71991e-013
158
root  23.2103 39.6773 1.09339 -174.54 -37.3315 174.332
RightUpLeg  12.4009 -13.3959 -16.2226
RightLeg  16.3172 -23.8417 -7.03884
RightFoot  13.1306 -7.65474 34.7589
RightToes  -5.8209e-011 0 -3.6325e-017
Spine  1.02752 4.01542 -0.226911
Spine1  -11.5805 4.40461 -2.6671
HEad  3.0184 -1.41228 -3.79181
LeftShoulder1  0.792532 7.60396 31.4373
LeftArm  -58.76 -39.7561 -7.59174
LeftForeArm  -6.45939 -32.4237 -7.49885
LeftHand  -1.84441 -4.51268 21.6828
RightShoulder  0.533115 -5.70428 -36.2372
RightArm  -68.7761 28.1771 13.4603
RightForeArm  -6.83375 57.1466 18.278
RightHand  -4.38351 8.88327 -34.8849
LeftUpLeg  -5.52019 -3.28859 -2.23049
LeftLeg  22.0111 4.92825 2.50496
LeftFoot  -7.14567 0.422639 -10.3506
LeftToes  6.82088e-011 -2.45093e-011 5.71991e-013
159
root  22.2955 39.463 0.976125 -173.331 -39.5808 172.605
RightUpLeg  9.29691 -11.0778 -17.5006
RightLeg  24.4421 -21.3834 -10.5292
RightFoot  15.1228 -7.28657 30.767
RightToes  -5.8209e-011 0 -3.6325e-017
Spine  0.922618 4.00006 -0.813668
Spine1  -9.6851 4.38541 -3.22811
HEad  3.60999 -2.01116 -4.31967
LeftShoulder1  0.792646 7.7391 30.79
LeftArm  -60.5409 -38.5276 -8.7688
LeftForeArm  -7.0296 -37.0015 -8.84159
LeftHand  -2.01229 -4.54624 23.4932
RightShoulder  0.592383 -5.9492 -36.2975
RightArm  -68.2173 25.6933 14.5189
RightForeArm  -8.40198 59.5698 20.3998
RightHand  -4.46926 9.0089 -35.232
LeftUpLeg  -6.29181 -2.35433 -6.98998
LeftLeg  20.0923 0.744416 0.596403
LeftFoot  -7.64789 0.305371 -7.93034
LeftToes  6.82088e-011 -2.45093e-011 5.71991e-013
160
root  21.4449 38.8885 0.870182 -173.142 -41.2117 171.783
RightUpLeg  5.05618 -6.6926 -17.9635
RightLeg  34.9102 -17.2149 -12.6918
RightFoot  17.2489 -5.96367 23.6259
RightToes  -5.8209e-011 0 -3.6325e-017
Spine  3.0026 4.18875 -1.3125
Spine1  -9.26103 4.3429 -3.67512
HEad  3.7298 -2.4948 -4.49904
LeftShoulder1  0.824016 8.31583 28.9975
LeftArm  -62.6618 -35.4156 -9.50128
LeftForeArm  -4.66058 -47.2455 -12.507
LeftHand  -2.19789 -4.69674 25.2295
RightShoulder  0.696896 -6.47743 -35.5111
RightArm  -69.2182 21.9371 14.6962
RightForeArm  -6.49048 65.7568 27.4765
RightHand  -4.50376 8.91852 -35.6935
LeftUpLeg  -7.00833 -1.65077 -10.3641
LeftLeg  22.7902 2.6148 1.60953
LeftFoot  -10.3801 0.0931901 -1.06549
LeftToes  6.82088e-011 -2.45093e-011 5.71991e-013
161
root  20.7168 37.9861 0.697712 -173.382 -43.4111 171.076
RightUpLeg  1.20679 -4.37779 -18.7125
RightLeg  45.4214 -11.97 -12.9873
RightFoot  20.5401 -4.93773 17.6705
RightToes  -5.8209e-011 0 -3.6325e-017
Spine  6.7753 4.16128 -3.33028
Spine1  -10.4022 3.69 -2.92238
HEad  4.12252 -3.30777 -4.20333
LeftShoulder1  0.740557 8.3921 26.766
LeftArm  -65.8164 -30.5105 -9.39731
LeftForeArm  0.216931 -61.567 -21.8271
LeftHand  -2.12548 -4.3186 25.3206
RightShoulder  0.637268 -6.4146 -33.8098
RightArm  -71.9758 16.2613 14.5833
RightForeArm  10.7025 74.2057 47.6748
RightHand  -4.4901 8.75835 -35.9657
LeftUpLeg  -7.65543 -2.70012 -12.3436
LeftLeg  29.0458 6.1766 4.04259
LeftFoot  -15.8849 0.245163 4.13295
LeftToes  6.82088e-011 -2.45093e-011 5.71991e-013
162
root  20.0697 37.1131 0.391886 -172.501 -46.9717 169.137
RightUpLeg  -1.65471 -4.69664 -20.2402
RightLeg  54.0895 -8.30543 -12.5203
RightFoot  22.8303 -4.46111 14.9485
RightToes  -5.8209e-011 0 -3.6325e-017
Spine  10.9587 3.68982 -7.42358
Spine1  -12.4325 2.26404 -0.655089
HEad  4.56794 -4.32878 -3.74232
LeftShoulder1  0.655996 8.36972 24.9435
LeftArm  -69.3644 -24.4638 -8.79735
LeftForeArm  20.603 -75.0955 -50.6349
LeftHand  -1.91159 -3.54196 24.7841
RightShoulder  0.631904 -6.69585 -31.6689
RightArm  -76.2823 9.23307 15.1587
RightForeArm  62.812 78.1165 99.7278
RightHand  -4.49372 8.85202 -35.774
LeftUpLeg  -7.47558 -5.14714 -13.9874
LeftLeg  34.1392 5.82429 4.58314
LeftFoot  -21.0761 0.570496 5.27008
LeftToes  6.82088e-011 -2.45093e-011 5.71991e-013
163
root  19.3522 36.6486 -0.0480133 -170.367 -50.733 166.731
RightUpLeg  -4.64629 -6.32145 -21.515
RightLeg  59.8018 -6.58258 -12.5317
RightFoot  20.2628 -3.81419 13.9027
RightToes  -5.8209e-011 0 -3.6325e-017
Spine  14.6596 3.06431 -11.3778
Spine1  -14.9486 0.777383 2.00051
HEad  4.47563 -4.79899 -3.26979
LeftShoulder1  0.757769 9.89874 23.164
LeftArm  -73.1456 -18.976 -8.47497
LeftForeArm  87.5498 -76.1044 -122.832
LeftHand  -1.79116 -2.98294 24.7623
RightShoulder  0.837351 -8.43444 -28.7476
RightArm  -81.6647 2.98582 16.0945
RightForeArm  107.094 71.2246 142.645
RightHand  -4.51287 9.03905 -35.4823
LeftUpLeg  -6.51799 -7.33256 -15.313
LeftLeg  35.6531 3.08299 2.78926
LeftFoot  -23.9658 0.804924 5.9677
LeftToes  6.82088e-011 -2.45093e-011 5.71991e-013
164
root  18.4239 36.7839 -0.573823 -169.151 -53.3142 166.574
RightUpLeg  -8.29977 -7.39258 -20.5804
RightLeg  61.0958 -6.25909 -12.5948
RightFoot  12.8868 -2.82068 13.5226
RightToes  -5.8209e-011 0 -3.6325e-017
Spine  17.5724 2.45525 -12.2687
Spine1  -18.4423 0.00349271 3.57415
HEad  4.75389 -4.32133 -3.02089
LeftShoulder1  0.871442 12.5577 20.5777
LeftArm  -77.8035 -15.8372 -8.32452
LeftForeArm  119.508 -64.7855 -154.723
LeftHand  -1.53905 -2.32243 23.0739
RightShoulder  0.971971 -10.6125 -24.9799
RightArm  -88.1456 -0.478325 16.7035
RightForeArm  122.428 61.3585 157.759
RightHand  -4.5094 8.97848 -35.5962
LeftUpLeg  -4.59568 -8.55022 -15.2006
LeftLeg  33.5748 2.08522 1.85845
LeftFoot  -23.8322 0.948631 7.3741
LeftToes  6.82088e-011 -2.45093e-011 5.71991e-013
165
root  17.3037 37.3521 -1.13961 -170.15 -54.7522 169.581
RightUpLeg  -11.8028 -7.35545 -17.232
RightLeg  57.2894 -6.875 -11.8122
RightFoot  4.6161 -2.00556 14.5305
RightToes  -5.8209e-011 0 -3.6325e-017
Spine  19.3664 1.79115 -9.86244
Spine1  -22.7815 -0.0657136 3.52576
HEad  6.56919 -3.22045 -3.18142
LeftShoulder1  0.795909 13.8345 18.3182
LeftArm  -81.0613 -16.2063 -7.75029
LeftForeArm  122.059 -61.8957 -157.678
LeftHand  -1.20208 -1.6713 19.8673
RightShoulder  0.876503 -11.4603 -21.9795
RightArm  -93.5536 -0.2081 17.3373
RightForeArm  125.352 55.5072 162.331
RightHand  -4.52884 8.95194 -35.7999
LeftUpLeg  -1.98971 -9.33119 -13.4025
LeftLeg  29.3779 2.85708 2.09991
LeftFoot  -21.1773 0.780109 7.52267
LeftToes  6.82088e-011 -2.45093e-011 5.71991e-013
166
root  16.0543 38.0604 -1.76064 -172.062 -55.8958 173.532
RightUpLeg  -13.9217 -6.71103 -13.246
RightLeg  49.1627 -8.20026 -10.3482
RightFoot  -1.42423 -1.46114 16.5855
RightToes  -5.8209e-011 0 -3.6325e-017
Spine  19.1202 1.07745 -6.68493
Spine1  -25.7616 0.00737411 3.04725
HEad  9.13853 -2.10973 -3.65666
LeftShoulder1  0.744737 12.5039 19.1288
LeftArm  -78.7631 -19.9952 -6.64492
LeftForeArm  92.6577 -73.5372 -127.785
LeftHand  -1.20597 -2.05361 18.8853
RightShoulder  0.808203 -10.8834 -21.9903
RightArm  -92.419 3.8338 18.2115
RightForeArm  121.81 59.9628 158.578
RightHand  -4.60088 9.13306 -35.908
LeftUpLeg  0.763418 -9.66848 -11.0179
LeftLeg  24.8292 2.50594 1.63366
LeftFoot  -16.7212 0.39083 6.15932
LeftToes  6.82088e-011 -2.45093e-011 5.71991e-013
167
root  14.6971 38.775 -2.43417 -174.096 -57.4716 176.712
RightUpLeg  -13.7611 -5.75761 -9.98662
RightLeg  37.9419 -9.90145 -8.42414
RightFoot  -5.31124 -0.98877 17.8811
RightToes  -5.8209e-011 0 -3.6325e-017
Spine  16.7791 0.393918 -4.81807
Spine1  -25.4132 -0.133351 4.31028
HEad  10.9574 -1.08363 -4.32225
LeftShoulder1  0.771515 9.86909 23.5025
LeftArm  -72.4476 -24.696 -5.12046
LeftForeArm  0.0747531 -67.995 -30.8049
LeftHand  -1.53144 -3.22237 20.6892
RightShoulder  0.909661 -9.94487 -25.5225
RightArm  -84.55 9.28812 17.608
RightForeArm  94.1354 74.1576 127.776
RightHand  -4.67495 9.23156 -36.2158
LeftUpLeg  3.79242 -8.73578 -8.72893
LeftLeg  20.828 -0.127134 0.295804
LeftFoot  -10.6836 0.0271884 4.89172
LeftToes  6.82088e-011 -2.45093e-011 5.71991e-013
168
root  13.3189 39.3809 -3.09575 -176.922 -59.5386 179.511
RightUpLeg  -11.8578 -4.21176 -7.41519
RightLeg  25.5782 -10.1615 -5.59616
RightFoot  -7.27294 -0.72846 18.9601
RightToes  -5.8209e-011 0 -3.6325e-017
Spine  14.0822 -0.324297 -3.96398
Spine1  -22.7162 -0.615106 7.34246
HEad  11.9525 0.235219 -4.87176
LeftShoulder1  0.734772 7.93324 28.233
LeftArm  -64.0352 -27.3213 -5.24393
LeftForeArm  -16.0611 -45.918 -11.3637
LeftHand  -1.81803 -3.73417 23.1556
RightShoulder  1.0654 -9.21208 -30.4826
RightArm  -74.3163 12.7921 14.6959
RightForeArm  5.65647 72.6141 39.4262
RightHand  -4.79861 9.38607 -36.7436
LeftUpLeg  6.50434 -6.64629 -6.075
LeftLeg  19.1144 -3.89763 -1.18813
LeftFoot  -3.56006 -0.133302 2.44976
LeftToes  6.82088e-011 -2.45093e-011 5.71991e-013
169
root  12.0329 39.6764 -3.71618 179.648 -61.4837 -177.729
RightUpLeg  -10.5648 -2.77646 -5.03425
RightLeg  16.1476 -6.28162 -2.97974
RightFoot  -6.52838 -0.984517 21.852
RightToes  -5.8209e-011 0 -3.6325e-017
Spine  12.4962 -1.15284 -2.63234
Spine1  -19.8235 -1.33607 8.9624
HEad  12.7487 1.97206 -4.82404
LeftShoulder1  0.742775 7.79266 29.2438
LeftArm  -60.624 -27.4066 -7.09676
LeftForeArm  -15.5591 -45.0591 -12.1001
LeftHand  -1.82674 -3.54311 23.7099
RightShoulder  1.11006 -8.77705 -33.0541
RightArm  -66.2123 13.8009 11.8345
RightForeArm  -14.4572 62.8525 23.2986
RightHand  -4.88469 9.50509 -37.0785
LeftUpLeg  7.23555 -4.45849 -2.82245
LeftLeg  21.8855 -8.16336 -3.29893
LeftFoot  3.23419 0.743274 -5.64756
LeftToes  6.82088e-011 -2.45093e-011 5.71991e-013
